<?xml version="1.0" encoding="UTF-8"?>
<!-- This file is generated by npm run build:icons -->
<svg
  xmlns="http://www.w3.org/2000/svg"
  xmlns:xlink="http://www.w3.org/1999/xlink"
  width="0"
  height="0"
>
  <defs>
    <symbol
      id="trash"
      fill="none"
      viewBox="0 0 24 24"
      stroke-width="1.5"
      stroke="currentColor"
    >
      <path
        stroke-linecap="round"
        stroke-linejoin="round"
        d="M14.74 9l-.346 9m-4.788 0L9.26 9m9.968-3.21c.342.052.682.107 1.022.166m-1.022-.165L18.16 19.673a2.25 2.25 0 01-2.244 2.077H8.084a2.25 2.25 0 01-2.244-2.077L4.772 5.79m14.456 0a48.108 48.108 0 00-3.478-.397m-12 .562c.34-.059.68-.114 1.022-.165m0 0a48.11 48.11 0 013.478-.397m7.5 0v-.916c0-1.18-.91-2.164-2.09-2.201a51.964 51.964 0 00-3.32 0c-1.18.037-2.09 1.022-2.09 2.201v.916m7.5 0a48.667 48.667 0 00-7.5 0"
      />
    </symbol>
    <symbol
      id="login"
      fill="none"
      viewBox="0 0 24 24"
      stroke-width="1.5"
      stroke="currentColor"
    >
      <path
        stroke-linecap="round"
        stroke-linejoin="round"
        d="M15.75 9V5.25A2.25 2.25 0 0013.5 3h-6a2.25 2.25 0 00-2.25 2.25v13.5A2.25 2.25 0 007.5 21h6a2.25 2.25 0 002.25-2.25V15M12 9l-3 3m0 0l3 3m-3-3h12.75"
      />
    </symbol>

    <symbol
      id="logout"
      fill="none"
      viewBox="0 0 24 24"
      stroke-width="1.5"
      stroke="currentColor"
    >
      <path
        stroke-linecap="round"
        stroke-linejoin="round"
        d="M15.75 9V5.25A2.25 2.25 0 0013.5 3h-6a2.25 2.25 0 00-2.25 2.25v13.5A2.25 2.25 0 007.5 21h6a2.25 2.25 0 002.25-2.25V15m3 0l3-3m0 0l-3-3m3 3H9"
      />
    </symbol>

    <symbol id="github">
      <path
        fill-rule="evenodd"
        clip-rule="evenodd"
        d="M48.854 0C21.839 0 0 22 0 49.217c0 21.756 13.993 40.172 33.405 46.69 2.427.49 3.316-1.059 3.316-2.362 0-1.141-.08-5.052-.08-9.127-13.59 2.934-16.42-5.867-16.42-5.867-2.184-5.704-5.42-7.17-5.42-7.17-4.448-3.015.324-3.015.324-3.015 4.934.326 7.523 5.052 7.523 5.052 4.367 7.496 11.404 5.378 14.235 4.074.404-3.178 1.699-5.378 3.074-6.6-10.839-1.141-22.243-5.378-22.243-24.283 0-5.378 1.94-9.778 5.014-13.2-.485-1.222-2.184-6.275.486-13.038 0 0 4.125-1.304 13.426 5.052a46.97 46.97 0 0 1 12.214-1.63c4.125 0 8.33.571 12.213 1.63 9.302-6.356 13.427-5.052 13.427-5.052 2.67 6.763.97 11.816.485 13.038 3.155 3.422 5.015 7.822 5.015 13.2 0 18.905-11.404 23.06-22.324 24.283 1.78 1.548 3.316 4.481 3.316 9.126 0 6.6-.08 11.897-.08 13.526 0 1.304.89 2.853 3.316 2.364 19.412-6.52 33.405-24.935 33.405-46.691C97.707 22 75.788 0 48.854 0z"
        fill="#fff"
      />
    </symbol>
    <symbol
      id="spin"
      fill="none"
      viewBox="0 0 24 24"
      stroke-width="1.5"
      stroke="currentColor"
    >
      <path
        stroke-linecap="round"
        stroke-linejoin="round"
        d="M16.023 9.348h4.992v-.001M2.985 19.644v-4.992m0 0h4.992m-4.993 0l3.181 3.183a8.25 8.25 0 0013.803-3.7M4.031 9.865a8.25 8.25 0 0113.803-3.7l3.181 3.182m0-4.991v4.99"
      />
    </symbol>

    <symbol
      id="plus"
      fill="none"
      viewBox="0 0 24 24"
      stroke-width="3.5"
      stroke="currentColor"
    >
      <path
        stroke-linecap="round"
        stroke-linejoin="round"
        d="M12 4.5v15m7.5-7.5h-15"
      />
    </symbol>

    <symbol
      id="pin"
      fill="none"
      viewBox="0 0 24 24"
      stroke-width="1.5"
      stroke="currentColor"
    >
      <path
        stroke-linecap="round"
        stroke-linejoin="round"
        d="M15 10.5a3 3 0 11-6 0 3 3 0 016 0z"
      />
      <path
        stroke-linecap="round"
        stroke-linejoin="round"
        d="M19.5 10.5c0 7.142-7.5 11.25-7.5 11.25S4.5 17.642 4.5 10.5a7.5 7.5 0 1115 0z"
      />
    </symbol>
    <symbol
      id="mail"
      fill="none"
      viewBox="0 0 24 24"
      stroke-width="1.5"
      stroke="currentColor"
      class="w-6 h-6"
    >
      <path
        stroke-linecap="round"
        stroke-linejoin="round"
        d="M21.75 6.75v10.5a2.25 2.25 0 01-2.25 2.25h-15a2.25 2.25 0 01-2.25-2.25V6.75m19.5 0A2.25 2.25 0 0019.5 4.5h-15a2.25 2.25 0 00-2.25 2.25m19.5 0v.243a2.25 2.25 0 01-1.07 1.916l-7.5 4.615a2.25 2.25 0 01-2.36 0L3.32 8.91a2.25 2.25 0 01-1.07-1.916V6.75"
      />
    </symbol>

    <symbol
      id="bars"
      fill="none"
      viewBox="0 0 24 24"
      stroke-width="1.5"
      stroke="currentColor"
      class="w-6 h-6"
    >
      <path
        stroke-linecap="round"
        stroke-linejoin="round"
        d="M3.75 9h16.5m-16.5 6.75h16.5"
      />
    </symbol>
  </defs>
</svg>
